# xmcd
#
# Track frame offsets:
#	150
#	21044
#	37443
#	54991
#	76399
#	93483
#	112383
#	128736
#	149731
#	167233
#
# Disc length: 2558 seconds
#
# Revision: 0
# Processed by: cddbd v1.5.2PL0 Copyright (c) Steve Scherf et al.
# Submitted via: EasyCDDAExtractor 11.1.0.1
#
DISCID=9309fc0a
DTITLE=Kardia - Kaukana Kaikesta
DYEAR=2006
DGENRE=
TTITLE0=Älä Ihan Vielä
TTITLE1=Taas Hengittää
TTITLE2=Kaduttaako
TTITLE3=Enne
TTITLE4=Tyydyn
TTITLE5=Ehkä
TTITLE6=Neulansilmä
TTITLE7=Muuri
TTITLE8=Ehtinyt Ei
TTITLE9=Viimeinen Päivä
EXTD=
EXTT0=
EXTT1=
EXTT2=
EXTT3=
EXTT4=
EXTT5=
EXTT6=
EXTT7=
EXTT8=
EXTT9=
PLAYORDER=
